<svg width="50" height="16" viewBox="0 0 50 16" fill="none" xmlns="http://www.w3.org/2000/svg">
<path d="M43.4466 15.5181C43.1027 15.5181 42.7949 15.4626 42.5232 15.3517C42.257 15.2352 42.0296 15.0772 41.8411 14.8775C41.658 14.6779 41.5166 14.4394 41.4168 14.1621C41.3225 13.8848 41.2754 13.5798 41.2754 13.2471C41.2754 12.9199 41.3225 12.6176 41.4168 12.3403C41.5166 12.063 41.658 11.8246 41.8411 11.6249C42.0296 11.4253 42.257 11.27 42.5232 11.1591C42.7949 11.0426 43.1027 10.9844 43.4466 10.9844C43.7904 10.9844 44.0954 11.0426 44.3616 11.1591C44.6334 11.27 44.8608 11.4253 45.0438 11.6249C45.2323 11.8246 45.3737 12.063 45.468 12.3403C45.5678 12.6176 45.6178 12.9199 45.6178 13.2471C45.6178 13.5798 45.5678 13.8848 45.468 14.1621C45.3737 14.4394 45.2323 14.6779 45.0438 14.8775C44.8608 15.0772 44.6334 15.2352 44.3616 15.3517C44.0954 15.4626 43.7904 15.5181 43.4466 15.5181ZM43.4466 14.7694C43.6573 14.7694 43.8403 14.725 43.9956 14.6363C44.1509 14.5476 44.2784 14.4311 44.3783 14.2869C44.4781 14.1427 44.5502 13.9819 44.5946 13.8044C44.6445 13.6214 44.6694 13.4356 44.6694 13.2471C44.6694 13.0641 44.6445 12.881 44.5946 12.698C44.5502 12.515 44.4781 12.3542 44.3783 12.2155C44.2784 12.0714 44.1509 11.9549 43.9956 11.8662C43.8403 11.7774 43.6573 11.7331 43.4466 11.7331C43.2358 11.7331 43.0528 11.7774 42.8975 11.8662C42.7423 11.9549 42.6147 12.0714 42.5149 12.2155C42.4151 12.3542 42.3402 12.515 42.2903 12.698C42.2459 12.881 42.2237 13.0641 42.2237 13.2471C42.2237 13.4356 42.2459 13.6214 42.2903 13.8044C42.3402 13.9819 42.4151 14.1427 42.5149 14.2869C42.6147 14.4311 42.7423 14.5476 42.8975 14.6363C43.0528 14.725 43.2358 14.7694 43.4466 14.7694Z" fill="white"/>
<path d="M38.2725 11.1009H38.9879V9.81152H39.9362V11.1009H40.793V11.808H39.9362V14.104C39.9362 14.2038 39.939 14.2898 39.9445 14.3619C39.9556 14.434 39.975 14.495 40.0028 14.5449C40.036 14.5948 40.0832 14.6336 40.1442 14.6613C40.2052 14.6835 40.2884 14.6946 40.3937 14.6946C40.4603 14.6946 40.5268 14.6946 40.5934 14.6946C40.6599 14.6891 40.7265 14.678 40.793 14.6613V15.3934C40.6877 15.4045 40.5851 15.4156 40.4852 15.4266C40.3854 15.4377 40.2828 15.4433 40.1774 15.4433C39.9279 15.4433 39.7255 15.4211 39.5702 15.3767C39.4204 15.3268 39.3012 15.2575 39.2125 15.1688C39.1293 15.0745 39.0711 14.958 39.0378 14.8194C39.0101 14.6807 38.9934 14.5227 38.9879 14.3452V11.808H38.2725V11.1009Z" fill="white"/>
<path d="M33.9282 11.1008H34.8266V11.7331L34.8433 11.7497C34.9875 11.5112 35.176 11.3254 35.409 11.1923C35.6419 11.0537 35.8998 10.9844 36.1826 10.9844C36.654 10.9844 37.0256 11.1064 37.2973 11.3504C37.569 11.5944 37.7049 11.9604 37.7049 12.4485V15.4016H36.7566V12.698C36.7455 12.3597 36.6734 12.1157 36.5403 11.966C36.4072 11.8107 36.1992 11.7331 35.9164 11.7331C35.7556 11.7331 35.6114 11.7636 35.4838 11.8246C35.3563 11.88 35.2481 11.9604 35.1594 12.0658C35.0707 12.1656 35.0013 12.2849 34.9514 12.4235C34.9015 12.5622 34.8766 12.7091 34.8766 12.8644V15.4016H33.9282V11.1008Z" fill="white"/>
<path d="M32.2588 12.8727C32.2477 12.723 32.2144 12.5788 32.1589 12.4401C32.109 12.3015 32.0369 12.1823 31.9427 12.0824C31.8539 11.9771 31.743 11.8939 31.6099 11.8329C31.4824 11.7663 31.3382 11.7331 31.1773 11.7331C31.011 11.7331 30.8585 11.7636 30.7198 11.8246C30.5867 11.88 30.4702 11.9604 30.3704 12.0658C30.2761 12.1656 30.1985 12.2849 30.1375 12.4235C30.082 12.5622 30.0515 12.7119 30.046 12.8727H32.2588ZM30.046 13.4966C30.046 13.663 30.0682 13.8238 30.1125 13.9791C30.1624 14.1344 30.2345 14.2703 30.3288 14.3867C30.4231 14.5032 30.5423 14.5975 30.6865 14.6696C30.8307 14.7361 31.0026 14.7694 31.2023 14.7694C31.4796 14.7694 31.7014 14.7112 31.8678 14.5947C32.0397 14.4727 32.1673 14.2924 32.2504 14.054H33.1489C33.099 14.2869 33.013 14.4949 32.891 14.6779C32.769 14.8609 32.622 15.0162 32.4501 15.1437C32.2782 15.2657 32.0841 15.3572 31.8678 15.4182C31.657 15.4848 31.4352 15.5181 31.2023 15.5181C30.864 15.5181 30.5645 15.4626 30.3039 15.3517C30.0432 15.2408 29.8214 15.0855 29.6384 14.8858C29.4609 14.6862 29.325 14.4477 29.2308 14.1704C29.142 13.8931 29.0977 13.5881 29.0977 13.2554C29.0977 12.9504 29.1448 12.662 29.2391 12.3902C29.3389 12.1129 29.4775 11.8717 29.655 11.6665C29.838 11.4558 30.0571 11.2894 30.3122 11.1674C30.5673 11.0454 30.8557 10.9844 31.1773 10.9844C31.5156 10.9844 31.8179 11.0565 32.0841 11.2007C32.3558 11.3393 32.5804 11.5251 32.7579 11.758C32.9354 11.9909 33.0629 12.2599 33.1405 12.5649C33.2237 12.8644 33.2459 13.175 33.2071 13.4966H30.046Z" fill="white"/>
<path d="M22.0679 11.1008H22.9663V11.6998H22.9912C23.0633 11.5944 23.141 11.4974 23.2242 11.4086C23.3074 11.3199 23.3989 11.245 23.4987 11.184C23.6041 11.123 23.7233 11.0759 23.8564 11.0426C23.9895 11.0038 24.142 10.9844 24.3139 10.9844C24.5746 10.9844 24.8158 11.0426 25.0376 11.1591C25.265 11.2755 25.4259 11.4558 25.5201 11.6998C25.681 11.478 25.8667 11.3033 26.0775 11.1757C26.2882 11.0482 26.5517 10.9844 26.8678 10.9844C27.3225 10.9844 27.6747 11.0953 27.9242 11.3171C28.1793 11.539 28.3069 11.9105 28.3069 12.4318V15.4016H27.3586V12.8894C27.3586 12.7174 27.353 12.5622 27.3419 12.4235C27.3308 12.2793 27.2976 12.1573 27.2421 12.0575C27.1922 11.9521 27.1146 11.8717 27.0092 11.8162C26.9038 11.7608 26.7596 11.7331 26.5766 11.7331C26.255 11.7331 26.022 11.8329 25.8778 12.0325C25.7336 12.2322 25.6616 12.515 25.6616 12.881V15.4016H24.7132V12.6398C24.7132 12.3403 24.6578 12.1157 24.5468 11.966C24.4415 11.8107 24.2446 11.7331 23.9562 11.7331C23.8342 11.7331 23.715 11.758 23.5985 11.8079C23.4876 11.8578 23.3878 11.9299 23.299 12.0242C23.2159 12.1185 23.1465 12.235 23.0911 12.3736C23.0412 12.5122 23.0162 12.6703 23.0162 12.8478V15.4016H22.0679V11.1008Z" fill="white"/>
<path d="M21.0677 15.4018H20.136V14.8029H20.1194C20.0029 15.0192 19.8282 15.1939 19.5953 15.327C19.3679 15.4545 19.135 15.5183 18.8965 15.5183C18.3309 15.5183 17.9205 15.3797 17.6654 15.1024C17.4158 14.8195 17.291 14.3953 17.291 13.8296V11.1011H18.2393V13.7381C18.2393 14.1152 18.3114 14.3814 18.4556 14.5367C18.5998 14.692 18.8022 14.7696 19.0629 14.7696C19.2625 14.7696 19.4289 14.7391 19.562 14.6781C19.6951 14.6171 19.8033 14.5367 19.8865 14.4369C19.9696 14.3315 20.0279 14.2067 20.0611 14.0625C20.1 13.9183 20.1194 13.7631 20.1194 13.5967V11.1011H21.0677V15.4018Z" fill="white"/>
<path d="M14.3662 11.1008H15.2563V11.9327H15.2729C15.3007 11.8162 15.3534 11.7026 15.431 11.5916C15.5142 11.4807 15.6112 11.3809 15.7222 11.2922C15.8386 11.1979 15.9662 11.123 16.1048 11.0676C16.2435 11.0121 16.3849 10.9844 16.5291 10.9844C16.64 10.9844 16.7149 10.9871 16.7537 10.9927C16.798 10.9982 16.8424 11.0038 16.8868 11.0093V11.9244C16.8202 11.9133 16.7509 11.905 16.6788 11.8994C16.6123 11.8883 16.5457 11.8828 16.4792 11.8828C16.3183 11.8828 16.1658 11.9161 16.0216 11.9826C15.883 12.0436 15.761 12.1379 15.6556 12.2655C15.5502 12.3875 15.4671 12.54 15.406 12.723C15.345 12.906 15.3145 13.1167 15.3145 13.3552V15.4016H14.3662V11.1008Z" fill="white"/>
<path d="M11.1636 11.1009H11.879V9.81152H12.8273V11.1009H13.6841V11.808H12.8273V14.104C12.8273 14.2038 12.8301 14.2898 12.8356 14.3619C12.8467 14.434 12.8661 14.495 12.8939 14.5449C12.9271 14.5948 12.9743 14.6336 13.0353 14.6613C13.0963 14.6835 13.1795 14.6946 13.2848 14.6946C13.3514 14.6946 13.4179 14.6946 13.4845 14.6946C13.551 14.6891 13.6176 14.678 13.6841 14.6613V15.3934C13.5788 15.4045 13.4762 15.4156 13.3764 15.4266C13.2765 15.4377 13.1739 15.4433 13.0686 15.4433C12.819 15.4433 12.6166 15.4211 12.4613 15.3767C12.3116 15.3268 12.1923 15.2575 12.1036 15.1688C12.0204 15.0745 11.9622 14.958 11.9289 14.8194C11.9012 14.6807 11.8845 14.5227 11.879 14.3452V11.808H11.1636V11.1009Z" fill="white"/>
<path d="M8.97123 14.6527C9.05996 14.6527 9.15979 14.6471 9.2707 14.636C9.38716 14.6194 9.49531 14.5917 9.59513 14.5529C9.69496 14.514 9.77537 14.4586 9.83637 14.3865C9.90292 14.3088 9.93343 14.209 9.92788 14.087C9.92233 13.965 9.87797 13.8652 9.79478 13.7875C9.71159 13.7099 9.60345 13.6489 9.47035 13.6045C9.3428 13.5546 9.19583 13.513 9.02946 13.4797C8.86309 13.4465 8.69394 13.4104 8.52202 13.3716C8.34455 13.3328 8.17263 13.2856 8.00626 13.2302C7.84543 13.1747 7.69847 13.0999 7.56537 13.0056C7.43781 12.9113 7.33522 12.7921 7.25758 12.6479C7.17993 12.4981 7.14111 12.3151 7.14111 12.0988C7.14111 11.8659 7.19657 11.6718 7.30749 11.5165C7.42395 11.3557 7.56814 11.2282 7.74006 11.1339C7.91753 11.034 8.11163 10.9647 8.32237 10.9259C8.53866 10.8871 8.74385 10.8677 8.93795 10.8677C9.15979 10.8677 9.37053 10.8926 9.57018 10.9425C9.77537 10.9869 9.95838 11.0618 10.1192 11.1671C10.2856 11.2725 10.4215 11.4112 10.5268 11.5831C10.6377 11.7495 10.7071 11.9519 10.7348 12.1903H9.74487C9.7005 11.963 9.59513 11.8105 9.42876 11.7328C9.26793 11.6552 9.08214 11.6164 8.8714 11.6164C8.80485 11.6164 8.72444 11.6219 8.63016 11.633C8.54143 11.6441 8.45547 11.6663 8.37228 11.6995C8.29464 11.7273 8.22809 11.7716 8.17263 11.8326C8.11717 11.8881 8.08945 11.963 8.08945 12.0573C8.08945 12.1737 8.12827 12.268 8.20591 12.3401C8.2891 12.4122 8.39447 12.4732 8.52202 12.5231C8.65512 12.5675 8.80485 12.6063 8.97123 12.6396C9.1376 12.6728 9.30952 12.7089 9.48699 12.7477C9.65891 12.7865 9.82806 12.8337 9.99443 12.8891C10.1608 12.9446 10.3078 13.0194 10.4353 13.1137C10.5684 13.208 10.6738 13.3272 10.7514 13.4714C10.8346 13.6156 10.8762 13.7931 10.8762 14.0038C10.8762 14.2589 10.818 14.4752 10.7015 14.6527C10.5851 14.8302 10.4325 14.9743 10.244 15.0853C10.061 15.1962 9.85578 15.2766 9.62841 15.3265C9.40103 15.3764 9.17642 15.4014 8.95459 15.4014C8.68285 15.4014 8.43051 15.3709 8.19759 15.3099C7.97021 15.2489 7.77056 15.1574 7.59864 15.0353C7.35899 14.8516 7.29969 14.6919 7.29079 14.7214C8.28739 14.7214 7.97404 14.6527 8.97123 14.6527Z" fill="white"/>
<path d="M48.0948 14.742C48.1835 14.742 48.2834 14.7365 48.3943 14.7254C48.5107 14.7088 48.6189 14.681 48.7187 14.6422C48.8185 14.6034 48.8989 14.5479 48.9599 14.4758C49.0265 14.3982 49.057 14.2984 49.0515 14.1764C49.0459 14.0544 49.0015 13.9545 48.9184 13.8769C48.8352 13.7993 48.727 13.7383 48.5939 13.6939C48.4664 13.644 48.3194 13.6024 48.153 13.5691C47.9867 13.5358 47.8175 13.4998 47.6456 13.461C47.4681 13.4221 47.2962 13.375 47.1298 13.3195C46.969 13.2641 46.822 13.1892 46.6889 13.0949C46.5614 13.0007 46.4588 12.8814 46.3811 12.7372C46.3035 12.5875 46.2647 12.4045 46.2647 12.1882C46.2647 11.9553 46.3201 11.7612 46.4311 11.6059C46.5475 11.4451 46.6917 11.3175 46.8636 11.2232C47.0411 11.1234 47.2352 11.0541 47.4459 11.0153C47.6622 10.9764 47.8674 10.957 48.0615 10.957C48.2834 10.957 48.4941 10.982 48.6937 11.0319C48.8989 11.0763 49.082 11.1511 49.2428 11.2565C49.4092 11.3619 49.545 11.5005 49.6504 11.6724C49.7613 11.8388 49.8306 12.0412 49.8584 12.2797H48.8684C48.8241 12.0523 48.7187 11.8998 48.5523 11.8222C48.3915 11.7445 48.2057 11.7057 47.995 11.7057C47.9284 11.7057 47.848 11.7113 47.7537 11.7224C47.665 11.7334 47.579 11.7556 47.4959 11.7889C47.4182 11.8166 47.3517 11.861 47.2962 11.922C47.2407 11.9775 47.213 12.0523 47.213 12.1466C47.213 12.2631 47.2518 12.3573 47.3295 12.4294C47.4127 12.5015 47.518 12.5625 47.6456 12.6125C47.7787 12.6568 47.9284 12.6956 48.0948 12.7289C48.2612 12.7622 48.4331 12.7982 48.6106 12.8371C48.7825 12.8759 48.9516 12.923 49.118 12.9785C49.2844 13.0339 49.4313 13.1088 49.5589 13.2031C49.692 13.2974 49.7974 13.4166 49.875 13.5608C49.9582 13.705 49.9998 13.8824 49.9998 14.0932C49.9998 14.3483 49.9416 14.5646 49.8251 14.742C49.7086 14.9195 49.5561 15.0637 49.3676 15.1746C49.1846 15.2855 48.9794 15.3659 48.752 15.4159C48.5246 15.4658 48.3 15.4907 48.0782 15.4907C47.4513 15.4907 44.2829 15.5157 43.5355 15.5157C43.2959 15.3319 44.6367 14.696 44.6278 14.7254C45.6244 14.7254 47.0976 14.742 48.0948 14.742Z" fill="white"/>
<path d="M3.40428 11.1008H2.50586V15.4016H3.45419V12.8644C3.45419 12.7091 3.47915 12.5622 3.52906 12.4235C3.57897 12.2849 3.64829 12.1656 3.73703 12.0658C3.82576 11.9604 3.9339 11.88 4.06146 11.8246C4.18901 11.7636 4.3332 11.7331 4.49403 11.7331C4.77687 11.7331 4.98483 11.8107 5.11793 11.966C5.25103 12.1157 5.32313 12.3597 5.33422 12.698V15.4016H6.28255H8.8509V14.6548H6.28255V12.4485C6.28255 11.9604 6.14668 11.5944 5.87493 11.3504C5.60319 11.1064 5.23162 10.9844 4.76023 10.9844C4.47739 10.9844 4.21951 11.0537 3.98659 11.1923C3.75367 11.3254 3.56511 11.5112 3.42092 11.7497L3.40428 11.7331V11.1008Z" fill="white"/>
<path d="M0.523926 9.46191H1.47226V10.3603H0.523926V9.46191ZM0.523926 11.1007H1.47226V15.4015H0.523926V11.1007Z" fill="white"/>
<g clip-path="url(#clip0_2336_332)">
<path d="M9.75872 0.47055C9.75872 3.41268 9.75872 6.35192 9.75872 9.29062C9.75872 9.29987 9.75636 9.30965 9.75925 9.31775C9.76275 9.32523 9.77142 9.33105 9.7807 9.33968C10.3688 9.33968 10.9598 9.33968 11.5461 9.33968C11.556 9.32752 11.5635 9.32118 11.5664 9.3137C11.5693 9.30559 11.5669 9.29582 11.5669 9.28657C11.5669 7.37595 11.5669 5.46478 11.5669 3.55419C11.5669 3.54552 11.5653 3.53512 11.5687 3.52762C11.5722 3.52011 11.5809 3.51434 11.5942 3.50163C11.6232 3.50163 11.6597 3.49642 11.6939 3.50278C11.7396 3.51145 11.7223 3.5588 11.7367 3.58711C11.7675 3.64775 11.8057 3.70435 11.8405 3.76269C11.8005 3.84412 11.903 3.88571 11.8955 3.95848C11.9557 4.00122 11.9402 4.0919 12.005 4.13175C11.983 4.20222 12.0861 4.22821 12.0647 4.29809C12.1191 4.32524 12.1087 4.38934 12.1406 4.43093C12.1754 4.47771 12.1979 4.53374 12.224 4.58687C12.2495 4.64001 12.2634 4.70239 12.3 4.74571C12.3405 4.79365 12.3324 4.86584 12.3886 4.90107C12.3689 4.96287 12.4408 4.98482 12.4483 5.04143C12.4552 5.09629 12.5021 5.14538 12.5294 5.19794C12.5566 5.2505 12.5821 5.30364 12.6082 5.35677C12.6343 5.40991 12.6499 5.47114 12.6875 5.51387C12.724 5.55546 12.7165 5.61091 12.7594 5.65133C12.8006 5.69003 12.7455 5.77898 12.8203 5.81537C12.804 5.88409 12.8967 5.91239 12.8823 5.98113C12.9419 6.01462 12.9315 6.08855 12.9726 6.13592C13.0097 6.17866 13.0213 6.24219 13.0473 6.29475C13.0734 6.34788 13.1029 6.39928 13.1302 6.45184C13.1574 6.5044 13.1852 6.55638 13.2107 6.60952C13.2362 6.66266 13.2513 6.72388 13.2873 6.76777C13.3267 6.81629 13.3318 6.87751 13.3724 6.92603C13.4084 6.96877 13.4141 7.03519 13.4408 7.08716C13.468 7.1403 13.5311 7.18939 13.53 7.23849C13.5282 7.31069 13.6239 7.33321 13.5943 7.40599C13.6604 7.43487 13.6395 7.51515 13.6887 7.55962C13.7328 7.59889 13.6719 7.68841 13.749 7.72422C13.8116 7.88999 13.902 8.04362 13.979 8.20245C14.0601 8.36937 14.1522 8.53109 14.231 8.69916C14.3313 8.91286 14.4518 9.11674 14.5428 9.33448C14.5596 9.33792 14.5764 9.34435 14.5932 9.34435C15.2595 9.34487 15.9258 9.34487 16.5921 9.34373C16.6159 9.34373 16.6402 9.33043 16.6622 9.32409C16.6622 6.35019 16.6622 3.3838 16.6617 0.417414C16.6617 0.410483 16.6506 0.404129 16.6402 0.392578C16.0718 0.392578 15.4993 0.392578 14.9309 0.392578C14.9211 0.403552 14.9125 0.409328 14.9096 0.416836C14.9066 0.424922 14.909 0.434741 14.909 0.443982C14.909 0.453223 14.909 0.462464 14.909 0.471127C14.909 0.480369 14.909 0.48961 14.909 0.498273C14.909 0.507514 14.909 0.516755 14.909 0.525419C14.909 0.543901 14.909 0.561805 14.909 0.580288C14.909 0.589529 14.909 0.59877 14.909 0.607433C14.909 2.41811 14.909 4.22879 14.909 6.03946C14.909 6.05794 14.9107 6.07643 14.9078 6.09375C14.9066 6.10068 14.8957 6.10646 14.8858 6.11512C14.8244 6.11801 14.7485 6.16248 14.7369 6.03773C14.7323 5.98459 14.6732 5.93839 14.6459 5.88583C14.6193 5.83384 14.6094 5.77205 14.5781 5.72353C14.5498 5.67964 14.5381 5.62592 14.5069 5.59012C14.4657 5.54275 14.4761 5.46825 14.4159 5.43533C14.4316 5.36659 14.355 5.33714 14.3492 5.27014C14.3446 5.21701 14.2682 5.1708 14.2635 5.11824C14.2577 5.05124 14.1801 5.02179 14.1969 4.95306C14.1366 4.92013 14.1471 4.84621 14.1059 4.79827C14.0752 4.76188 14.0625 4.70874 14.0346 4.66485C14.0034 4.61633 13.9929 4.55453 13.9662 4.50255C13.939 4.44942 13.9031 4.40148 13.8707 4.35065C13.8991 4.27846 13.7832 4.25593 13.8127 4.18373C13.7507 4.1306 13.7415 4.04916 13.7038 3.98274C13.6662 3.91632 13.6296 3.8499 13.5943 3.78233C13.563 3.72284 13.5329 3.66219 13.5045 3.60097C13.4726 3.53224 13.4396 3.46409 13.4066 3.39593C13.3736 3.32777 13.3405 3.25905 13.3063 3.19205C13.2722 3.1239 13.2415 3.05401 13.2061 2.98817C13.1708 2.92117 13.1429 2.84897 13.1007 2.78544C13.063 2.72884 13.0334 2.66531 13.0056 2.60582C12.9744 2.53998 12.9036 2.4776 12.9366 2.38865C12.8845 2.33032 12.8613 2.25581 12.8283 2.18766C12.7878 2.10449 12.7536 2.01496 12.7049 1.9393C12.6534 1.8596 12.625 1.77065 12.5757 1.69095C12.523 1.60547 12.4888 1.50844 12.443 1.41892C12.4007 1.33632 12.3648 1.24969 12.319 1.17056C12.2721 1.0897 12.2281 1.00653 12.1898 0.922785C12.1082 0.747205 12.0073 0.580288 11.9331 0.394311C11.2356 0.394311 10.5351 0.394311 9.83578 0.394311C9.81433 0.415103 9.79515 0.434163 9.75872 0.47055Z" fill="white"/>
<path d="M6.71806 0.38857C6.16126 0.38857 5.60388 0.38857 5.04708 0.38857C5.03781 0.38857 5.02797 0.38626 5.01985 0.389148C5.01232 0.392613 5.00652 0.401277 4.99204 0.415716C4.99204 0.461344 4.99204 0.515058 4.99204 0.568194C4.99204 2.57062 4.99262 4.57305 4.9903 6.57548C4.9903 6.66211 5.01811 6.75221 4.96249 6.83654C4.90397 6.92549 4.95032 7.02944 4.93699 7.1259C4.84951 7.17037 4.90165 7.27087 4.85008 7.33729C4.80895 7.39042 4.75912 7.44761 4.73537 7.50651C4.7064 7.57698 4.65251 7.61856 4.61485 7.67575C4.56213 7.75603 4.45146 7.75025 4.40453 7.82938C4.37672 7.87616 4.31414 7.8519 4.29213 7.88771C4.24577 7.96338 4.14264 7.88194 4.10266 7.96338C4.09919 7.97031 4.08934 7.97781 4.0818 7.97781C4.02676 7.97896 3.97056 7.98648 3.91783 7.97666C3.8541 7.96453 3.83556 8.03845 3.77588 8.03499C3.67564 8.02922 3.57483 8.03326 3.47459 8.03326C3.37436 8.03326 3.27354 8.02748 3.17331 8.03499C3.07365 8.0425 2.98442 8.01535 2.89403 7.9807C2.84711 7.96279 2.79149 7.99399 2.74107 7.95125C2.69704 7.91428 2.63968 7.88483 2.58347 7.87327C2.53017 7.8623 2.50642 7.79241 2.44326 7.81378C2.34651 7.71733 2.24975 7.62088 2.15299 7.52442C2.15356 7.41411 1.98902 7.37483 2.03421 7.24604C1.95019 7.1929 2.00814 7.07161 1.9247 7.01847C1.9247 6.9457 1.9247 6.87293 1.9247 6.80015C1.9247 6.78224 1.92934 6.75625 1.92007 6.74817C1.83547 6.67597 1.87198 6.57952 1.87198 6.49461C1.86908 4.51125 1.86966 2.5273 1.86792 0.54278C1.86792 0.491955 1.89342 0.43362 1.84185 0.38857C1.25839 0.38857 0.674361 0.38857 0.0903263 0.389148C0.0839533 0.389148 0.0770005 0.400699 0.0613567 0.415138C0.0613567 0.450948 0.0613567 0.49542 0.0613567 0.539315C0.0613567 1.11284 0.0613566 1.68637 0.0607773 2.25931C0.0607773 2.30321 0.0717859 2.36674 0.0480306 2.38811C-0.0122269 2.4424 0.00747255 2.50478 0.00747255 2.56427C0.00631375 3.50166 0.00631383 4.43906 0.00631383 5.37645C0.00631383 5.41283 -0.00932998 5.4625 0.0086314 5.48329C0.103653 5.59534 0.0474512 5.72472 0.0590392 5.84543C0.0671507 5.92629 0.0607773 6.00888 0.0607773 6.0909C0.0607773 6.16367 0.0607773 6.23644 0.0607773 6.30922C0.0607773 6.39123 0.0607773 6.47325 0.0607773 6.55468C0.0607773 6.62746 0.0607773 6.70023 0.0607773 6.77301C0.0607773 6.85502 0.0607773 6.93703 0.0607773 7.01847C0.0607773 7.09125 0.0752623 7.16806 0.0573009 7.23622C0.0329662 7.32804 0.118138 7.37945 0.117558 7.46031C0.116979 7.52096 0.0885881 7.59257 0.137258 7.64166C0.19288 7.69769 0.160434 7.76064 0.170284 7.82013C0.171442 7.8288 0.169704 7.84266 0.174339 7.84497C0.228223 7.87327 0.209683 7.94547 0.251979 7.97666C0.312816 8.02113 0.249661 8.09794 0.307601 8.14704C0.351635 8.18458 0.348159 8.26082 0.406099 8.29663C0.461142 8.33071 0.444918 8.4081 0.500541 8.45026C0.545154 8.48434 0.563116 8.55192 0.601356 8.59696C0.648287 8.65241 0.701013 8.70382 0.756056 8.75175C0.801249 8.79103 0.833116 8.83955 0.903805 8.85918C0.965215 8.87651 1.00925 8.9539 1.06314 9.00242C1.07415 9.01224 1.09732 9.0082 1.11181 9.01628C1.18539 9.05844 1.26477 9.08963 1.33893 9.12833C1.40614 9.16356 1.47625 9.19474 1.54172 9.23402C1.62689 9.20804 1.67904 9.30914 1.76595 9.29232C1.79028 9.28774 1.82157 9.33741 1.85228 9.34146C1.94672 9.353 2.05043 9.31601 2.13039 9.39809C2.19412 9.39809 2.26133 9.41016 2.32159 9.39518C2.39749 9.37607 2.42356 9.4622 2.49136 9.45463C2.56378 9.44653 2.63736 9.45296 2.71037 9.45296C2.7741 9.45296 2.84305 9.46793 2.90099 9.44943C2.98732 9.42231 3.02382 9.51064 3.09856 9.5095C3.37262 9.5043 3.64668 9.50544 3.92015 9.5095C3.97345 9.51011 3.99779 9.4726 4.03603 9.45639C4.07485 9.44019 4.12584 9.45296 4.17161 9.45296C4.24461 9.45296 4.31762 9.45577 4.39062 9.45172C4.4503 9.44829 4.50708 9.45815 4.56966 9.41887C4.62238 9.38532 4.70813 9.40329 4.77882 9.39809C4.78751 9.39747 4.80084 9.39809 4.80374 9.39342C4.8385 9.33803 4.89412 9.33512 4.94742 9.3449C5.01 9.35643 5.04592 9.2895 5.0888 9.29355C5.18266 9.30157 5.25683 9.2548 5.34026 9.23464C5.39183 9.14683 5.51755 9.21324 5.56854 9.12544C5.63749 9.14102 5.66356 9.08155 5.69891 9.04573C5.73715 9.00646 5.8061 9.02495 5.83217 8.9695C5.86287 8.90538 5.9411 8.91925 5.98455 8.87362C6.07899 8.77486 6.18328 8.68476 6.27193 8.58137C6.31596 8.53054 6.33914 8.46355 6.38781 8.41041C6.44401 8.34919 6.46429 8.2614 6.50601 8.18746C6.53497 8.13607 6.55931 8.08177 6.57843 8.02633C6.59524 7.97839 6.65143 7.94836 6.63521 7.8854C6.61841 7.82013 6.71691 7.79068 6.69025 7.71675C6.66592 7.65033 6.73081 7.6047 6.74124 7.5481C6.75341 7.47764 6.75399 7.4014 6.74182 7.33036C6.72676 7.24315 6.81482 7.19348 6.80208 7.10626C6.78933 7.01731 6.79918 6.9249 6.79918 6.83365C6.79918 6.73373 6.79918 6.63323 6.79918 6.53331C6.79918 6.44205 6.79918 6.35138 6.79918 6.26012C6.79918 6.16887 6.79918 6.07819 6.79918 5.98694C6.79918 5.89568 6.79918 5.805 6.79918 5.71374C6.79918 5.61383 6.79918 5.51333 6.79918 5.41341C6.79918 5.32216 6.79918 5.23147 6.79918 5.14022C6.79918 5.04896 6.79918 4.95829 6.79918 4.86703C6.79918 4.77577 6.79918 4.6851 6.79918 4.59384C6.79918 4.49392 6.79918 4.39343 6.79918 4.29351C6.89189 4.22651 6.85191 4.12774 6.85249 4.04284C6.85538 2.97781 6.85423 1.91277 6.85423 0.848315C6.85423 0.793446 6.84553 0.737421 6.85654 0.684862C6.87044 0.619598 6.78818 0.600537 6.80034 0.543358C6.81714 0.468852 6.76094 0.433043 6.71806 0.38857Z" fill="white"/>
<path d="M35.8922 0.393555C35.8922 3.37438 35.8922 6.33211 35.8922 9.28987C35.8922 9.29912 35.8893 9.30889 35.8928 9.31699C35.8963 9.32448 35.9055 9.32968 35.9166 9.34007C37.9259 9.34007 39.9411 9.34007 41.9522 9.34007C41.962 9.32792 41.973 9.32157 41.973 9.31471C41.9736 8.85031 41.9736 8.38651 41.9736 7.92215C41.9736 7.91349 41.9742 7.90367 41.9708 7.89616C41.9673 7.88866 41.9586 7.88288 41.9464 7.87075C41.9075 7.87075 41.8623 7.87075 41.8178 7.87075C40.5575 7.87075 39.298 7.87075 38.0378 7.87075C37.9647 7.87075 37.8918 7.87191 37.8188 7.87017C37.7649 7.86902 37.7029 7.80433 37.7005 7.74946C37.6994 7.72231 37.7005 7.69459 37.7005 7.66745C37.7005 6.95761 37.7005 6.24778 37.7012 5.53796C37.7012 5.49579 37.6832 5.4467 37.7284 5.4132C38.9243 5.4132 40.1207 5.4132 41.3166 5.4132C41.3258 5.4132 41.3357 5.41551 41.3438 5.41262C41.3513 5.40916 41.3572 5.40049 41.3659 5.39183C41.3659 4.91418 41.3659 4.4348 41.3659 3.95946C41.3531 3.94964 41.3462 3.93982 41.3398 3.93982C40.1439 3.93924 38.9474 3.93924 37.7515 3.93924C37.7428 3.93924 37.733 3.93982 37.7255 3.93578C37.718 3.93174 37.7122 3.92365 37.7005 3.9121C37.7005 3.24443 37.7005 2.57156 37.7012 1.8987C37.7012 1.89177 37.7098 1.88426 37.7145 1.87733C37.722 1.8727 37.7289 1.86462 37.7364 1.86462C39.0419 1.86404 40.3478 1.86404 41.6532 1.86404C41.6613 1.86404 41.6706 1.86231 41.6781 1.85827C41.6856 1.85364 41.6914 1.84614 41.7002 1.83689C41.7002 1.36618 41.7002 0.893151 41.6996 0.420123C41.6996 0.413192 41.6891 0.406839 41.6792 0.39471C39.7586 0.393555 37.835 0.393555 35.8922 0.393555Z" fill="white"/>
<path d="M46.0836 5.43911C46.0993 5.42525 46.1051 5.41717 46.1126 5.41428C46.1208 5.41139 46.1306 5.4137 46.1398 5.4137C46.1491 5.4137 46.1578 5.4137 46.1671 5.4137C46.1764 5.4137 46.1856 5.4137 46.1943 5.4137C46.2036 5.4137 46.2129 5.4137 46.2215 5.4137C46.2302 5.4137 46.2395 5.4137 46.2488 5.4137C47.2981 5.4137 48.3474 5.4137 49.3972 5.4137C49.4157 5.4137 49.4337 5.41543 49.4516 5.41254C49.4587 5.41139 49.4644 5.40042 49.4742 5.3906C49.4742 4.91468 49.4742 4.43472 49.4742 3.95996C49.4622 3.95014 49.4563 3.94206 49.4482 3.93975C49.4401 3.93686 49.4303 3.93917 49.421 3.93917C48.3259 3.93917 47.2308 3.93917 46.1358 3.93917C46.1265 3.93917 46.1166 3.9409 46.1091 3.93743C46.1016 3.93397 46.0958 3.9253 46.0883 3.91722C46.0883 3.22067 46.0883 2.52297 46.0883 1.82931C46.101 1.8195 46.1068 1.81198 46.115 1.80968C46.123 1.80679 46.1329 1.80909 46.1421 1.80909C47.3833 1.80909 48.6243 1.80909 49.8654 1.80909C49.8741 1.80909 49.8845 1.81025 49.892 1.80679C49.8995 1.80332 49.9053 1.79466 49.9123 1.78773C49.9123 1.32683 49.9123 0.86535 49.9123 0.408494C49.899 0.399253 49.892 0.389434 49.8851 0.389434C48.0327 0.388857 46.1804 0.388857 44.328 0.388857C44.3194 0.388857 44.3089 0.387702 44.3014 0.391167C44.2939 0.394632 44.2881 0.403296 44.2753 0.416002C44.2753 0.444881 44.2753 0.48069 44.2753 0.515922C44.2753 3.39972 44.2753 6.28294 44.2759 9.16676C44.2759 9.20886 44.258 9.258 44.3038 9.29094C44.8692 9.29094 45.4353 9.29094 46.0008 9.29094C46.0194 9.29094 46.0373 9.29261 46.0553 9.28979C46.0622 9.28856 46.068 9.27764 46.0836 9.26205C46.0836 7.99196 46.0836 6.71149 46.0836 5.43911Z" fill="white"/>
<path d="M22.5253 1.91825C23.2641 1.91825 23.9762 1.91825 24.6888 1.91825C24.7138 1.89285 24.7393 1.86685 24.7636 1.84144C24.7636 1.36206 24.7636 0.882099 24.7636 0.407339C24.7497 0.398098 24.7428 0.389434 24.7352 0.389434C22.6459 0.388857 20.5566 0.388857 18.4667 0.388857C18.458 0.388857 18.4481 0.387702 18.4406 0.391167C18.4331 0.394632 18.4273 0.403296 18.4209 0.409649C18.4209 0.907512 18.4209 1.4048 18.4209 1.89804C18.4342 1.90728 18.4412 1.91652 18.4481 1.91652C19.1689 1.9171 19.8897 1.9171 20.6105 1.9171C20.6191 1.9171 20.629 1.9171 20.636 1.92057C20.6435 1.92461 20.6493 1.9327 20.6632 1.94713C20.6632 4.40238 20.6632 6.86513 20.6632 9.32731C20.9564 9.35391 22.2971 9.351 22.5242 9.32326C22.5253 6.86224 22.5253 4.39949 22.5253 1.91825Z" fill="white"/>
<path d="M9.7585 0.47055C9.79502 0.434163 9.81419 0.415103 9.83504 0.394311C10.5343 0.394311 11.2342 0.394311 11.9324 0.394311C12.0066 0.580288 12.1074 0.747205 12.1891 0.922785C12.2279 1.00653 12.2714 1.0897 12.3183 1.17056C12.3647 1.24969 12.4 1.33632 12.4423 1.41892C12.4886 1.50901 12.5222 1.60547 12.575 1.69095C12.6243 1.77065 12.6526 1.8596 12.7042 1.9393C12.7534 2.01496 12.787 2.10449 12.8276 2.18766C12.8612 2.25581 12.8838 2.33032 12.936 2.38865C12.9029 2.47702 12.9736 2.53998 13.0049 2.60582C13.0333 2.66531 13.0623 2.72884 13.0999 2.78544C13.1422 2.84897 13.17 2.92117 13.2053 2.98817C13.2407 3.05459 13.2714 3.12448 13.3056 3.19205C13.3398 3.25905 13.3728 3.32777 13.4059 3.39593C13.4389 3.46409 13.4714 3.53281 13.5038 3.60097C13.5321 3.66161 13.5623 3.72284 13.5936 3.78233C13.6289 3.8499 13.6654 3.91632 13.7031 3.98274C13.7407 4.04916 13.7495 4.1306 13.812 4.18373C13.7825 4.25651 13.8983 4.27846 13.87 4.35065C13.9024 4.4009 13.9383 4.44942 13.9656 4.50255C13.9922 4.55453 14.0026 4.61633 14.0339 4.66485C14.0617 4.70874 14.0745 4.76245 14.1052 4.79827C14.1463 4.84621 14.1359 4.92013 14.1961 4.95306C14.1793 5.02179 14.257 5.05124 14.2628 5.11824C14.2674 5.1708 14.3439 5.21758 14.3485 5.27014C14.3549 5.33714 14.4313 5.36659 14.4151 5.43533C14.4754 5.46825 14.4644 5.54275 14.5061 5.59012C14.5374 5.62592 14.549 5.68021 14.5774 5.72353C14.6087 5.77205 14.6186 5.83384 14.6452 5.88583C14.6724 5.93896 14.7315 5.98517 14.7362 6.03773C14.7477 6.16248 14.8236 6.11858 14.885 6.11512C14.8943 6.10646 14.9059 6.10068 14.9071 6.09375C14.91 6.07584 14.9082 6.05737 14.9082 6.03946C14.9082 4.22879 14.9082 2.41811 14.9082 0.607433C14.9082 0.598192 14.9082 0.588951 14.9082 0.580288C14.9082 0.561805 14.9082 0.543901 14.9082 0.525419C14.9082 0.516178 14.9082 0.506936 14.9082 0.498273C14.9082 0.489032 14.9082 0.479791 14.9082 0.471127C14.9082 0.461886 14.9082 0.452645 14.9082 0.443982C14.9082 0.434741 14.9059 0.424922 14.9088 0.416836C14.9117 0.409328 14.9204 0.403552 14.9303 0.392578C15.4987 0.392578 16.0711 0.392578 16.6395 0.392578C16.6499 0.404129 16.6609 0.410483 16.6609 0.417414C16.6615 3.3838 16.6615 6.35019 16.6615 9.32409C16.6395 9.33043 16.6157 9.34373 16.5914 9.34373C15.925 9.34487 15.2587 9.34487 14.5925 9.34435C14.5756 9.34435 14.5588 9.33792 14.542 9.33448C14.4505 9.11674 14.3306 8.91286 14.2303 8.69916C14.1516 8.53109 14.0594 8.36937 13.9783 8.20245C13.9012 8.04362 13.8115 7.88999 13.7482 7.72422C13.6712 7.68841 13.732 7.59889 13.688 7.55962C13.6388 7.51572 13.6596 7.43487 13.5936 7.40599C13.6225 7.33379 13.527 7.31126 13.5292 7.23849C13.5304 7.18882 13.4672 7.13972 13.44 7.08716C13.4134 7.03519 13.4076 6.96877 13.3716 6.92603C13.3311 6.87751 13.3259 6.81629 13.2865 6.76777C13.2506 6.7233 13.2355 6.66208 13.21 6.60952C13.184 6.55638 13.1567 6.5044 13.1295 6.45184C13.1023 6.39928 13.0727 6.34788 13.0466 6.29475C13.0211 6.24161 13.0089 6.17866 12.9719 6.13592C12.9307 6.08797 12.9412 6.01462 12.8815 5.98113C12.896 5.91297 12.8038 5.88467 12.8195 5.81537C12.7447 5.77898 12.7992 5.69003 12.7587 5.65133C12.7158 5.61091 12.7233 5.55546 12.6868 5.51387C12.6491 5.47114 12.6335 5.40991 12.6074 5.35677C12.5813 5.30364 12.5565 5.2505 12.5286 5.19794C12.5014 5.14538 12.4545 5.09629 12.4475 5.04143C12.44 4.98482 12.3687 4.9623 12.3878 4.90107C12.3311 4.86526 12.3391 4.79365 12.2992 4.74571C12.2627 4.70239 12.2494 4.64001 12.2233 4.58687C12.1972 4.53374 12.1746 4.47771 12.1398 4.43093C12.1086 4.38877 12.119 4.32466 12.0639 4.29809C12.0854 4.22821 11.9822 4.20222 12.0043 4.13175C11.9394 4.0919 11.955 4.00122 11.8947 3.95848C11.9023 3.88628 11.7997 3.84412 11.8398 3.76269C11.805 3.70435 11.7667 3.64717 11.736 3.58711C11.7215 3.5588 11.7389 3.51145 11.6932 3.50278C11.6589 3.49642 11.6224 3.50163 11.5935 3.50163C11.5801 3.51491 11.5715 3.52011 11.568 3.52762C11.5645 3.53512 11.5663 3.54494 11.5663 3.55419C11.5663 5.46478 11.5663 7.37595 11.5663 9.28657C11.5663 9.29582 11.5686 9.30559 11.5657 9.3137C11.5628 9.32118 11.5553 9.32752 11.5454 9.33968C10.959 9.33968 10.3687 9.33968 9.77996 9.33968C9.77067 9.33043 9.76201 9.32523 9.7585 9.31775C9.75509 9.31026 9.75798 9.29987 9.75798 9.29062C9.7585 6.35192 9.7585 3.41268 9.7585 0.47055Z" fill="white"/>
<path d="M33.3193 9.34535C32.6519 9.34535 32.0129 9.34535 31.3726 9.34535C31.2949 9.27261 31.2417 9.1848 31.2376 9.07623C31.2353 9.02021 31.1582 8.99942 31.1808 8.93473C31.1994 8.88159 31.1292 8.85387 31.1316 8.82153C31.1362 8.758 31.058 8.73836 31.0725 8.68002C31.0876 8.6188 31.0411 8.58357 31.0174 8.53853C31.0557 8.45766 30.9583 8.41434 30.9623 8.34272C30.8795 8.30172 30.9293 8.21104 30.8905 8.15443C30.8517 8.09783 30.8332 8.03199 30.7984 7.97424C30.8262 7.89626 30.7278 7.85468 30.7416 7.77786C30.7457 7.75649 30.7236 7.73166 30.7173 7.7074C30.7005 7.64098 30.6304 7.59362 30.6362 7.52374C30.6426 7.4475 30.5516 7.40591 30.5783 7.32793C30.5812 7.31985 30.5823 7.30368 30.5783 7.30195C30.5186 7.26787 30.5342 7.1899 30.4849 7.14831C30.4404 7.11078 30.4849 7.04955 30.449 6.99873C30.4114 6.94559 30.3587 6.88494 30.3633 6.81852C30.3685 6.74113 30.2903 6.70243 30.2989 6.62215C30.3042 6.57133 30.27 6.49971 30.2294 6.46505C30.1686 6.41365 30.2289 6.33337 30.1732 6.29582C30.1078 6.25135 30.1599 6.17916 30.12 6.12487C30.0817 6.07289 30.0539 6.00877 30.0278 5.94582C30.0046 5.88979 29.9635 5.84706 29.8847 5.84879C29.6384 5.85457 29.3916 5.8511 29.1454 5.8511C28.8818 5.8511 28.6175 5.8511 28.3591 5.8511C28.3469 5.86322 28.3383 5.86842 28.3348 5.87651C28.3314 5.88402 28.3319 5.89384 28.3319 5.9025C28.3319 7.02183 28.3319 8.14057 28.3314 9.25993C28.3314 9.26679 28.3215 9.27375 28.3117 9.28643C27.7253 9.28643 27.1349 9.28643 26.5456 9.28643C26.5375 9.27842 26.5288 9.27322 26.5253 9.26565C26.5219 9.25816 26.5242 9.24777 26.5242 9.23914C26.5242 6.28254 26.5242 3.3254 26.5248 0.368823C26.5248 0.361892 26.5346 0.354961 26.5485 0.335901C26.5839 0.335901 26.6279 0.335901 26.6719 0.335901C27.913 0.335901 29.1546 0.337057 30.3957 0.333014C30.4884 0.332436 30.5637 0.374599 30.6472 0.38615C30.7637 0.402899 30.8841 0.387305 31.0024 0.391348C31.0707 0.393658 31.1489 0.36247 31.2028 0.436976C31.2098 0.446794 31.2359 0.442174 31.2532 0.445062C31.3216 0.457191 31.3987 0.417916 31.4589 0.476828C31.511 0.527654 31.6108 0.462966 31.646 0.553644C31.7348 0.517835 31.7921 0.599272 31.8674 0.616022C31.9305 0.629884 31.9827 0.7067 32.0435 0.712476C32.1351 0.721717 32.1467 0.845894 32.244 0.827411C32.2961 0.87766 32.3488 0.927908 32.4004 0.978735C32.4781 1.05555 32.5742 1.12197 32.6276 1.21323C32.678 1.29929 32.7458 1.36513 32.8054 1.43963C32.8362 1.47833 32.8368 1.53724 32.8791 1.57248C32.8651 1.64063 32.9584 1.66835 32.9422 1.73708C33.0013 1.77174 32.9763 1.83238 32.9914 1.8809C33.0082 1.93635 33.0482 1.98428 33.0777 2.03626C33.0859 2.0507 33.0963 2.06687 33.0974 2.08247C33.1021 2.15178 33.0772 2.22917 33.153 2.27826C33.1612 2.35681 33.1264 2.4446 33.1769 2.51333C33.2319 2.58957 33.2041 2.66927 33.2064 2.74667C33.2116 2.95575 33.2087 3.1654 33.2075 3.37449C33.2075 3.42646 33.2214 3.48191 33.1658 3.52234C33.1514 3.53274 33.1548 3.57144 33.1537 3.59743C33.1496 3.66905 33.1479 3.74066 33.145 3.81228C33.0679 3.86427 33.1178 3.94743 33.0952 4.01039C33.0784 4.05775 33.0361 4.09241 33.0418 4.15305C33.0482 4.21369 32.977 4.24835 32.9833 4.3217C32.988 4.37252 32.948 4.43606 32.9103 4.47822C32.8738 4.5198 32.8918 4.58622 32.8355 4.61221C32.8355 4.68326 32.7672 4.71271 32.7411 4.76469C32.6467 4.95702 32.4648 5.06792 32.3315 5.22271C32.3211 5.23541 32.3043 5.2435 32.2886 5.25043C32.2348 5.27411 32.1716 5.28624 32.1276 5.32205C32.0499 5.38443 31.985 5.46297 31.912 5.53113C31.8865 5.5548 31.886 5.59697 31.8952 5.60332C31.9607 5.64722 31.9358 5.71595 31.9543 5.77197C31.9728 5.82684 32.0279 5.87016 32.0447 5.92503C32.0644 5.98972 32.0603 6.06191 32.1125 6.11563C32.0904 6.18493 32.1542 6.22709 32.1658 6.28428C32.1774 6.34319 32.244 6.37958 32.2243 6.45293C32.2104 6.50432 32.2985 6.52916 32.2776 6.59385C32.2649 6.63312 32.2985 6.65623 32.317 6.68684C32.3471 6.73651 32.3813 6.79427 32.3819 6.84855C32.3825 6.90978 32.4341 6.94039 32.4393 6.99006C32.4445 7.04436 32.4376 7.09864 32.4932 7.13214C32.4914 7.21184 32.587 7.26557 32.5511 7.35393C32.6165 7.39378 32.6044 7.48157 32.6601 7.5272C32.6247 7.61441 32.7261 7.66755 32.7168 7.75014C32.7144 7.77209 32.7336 7.79692 32.7446 7.81945C32.7631 7.85757 32.7759 7.90204 32.8043 7.93035C32.8501 7.97597 32.7939 8.04239 32.8419 8.07878C32.8871 8.11285 32.8778 8.15617 32.8802 8.20064C32.8813 8.21624 32.8912 8.23241 32.8993 8.24685C32.9283 8.29883 32.9781 8.34792 32.9833 8.40164C32.9897 8.46633 33.0308 8.51657 33.0372 8.57028C33.0447 8.63555 33.0824 8.68234 33.0952 8.73894C33.1085 8.79785 33.171 8.83308 33.1566 8.90759C33.145 8.96477 33.2296 9.00289 33.2116 9.07623C33.2058 9.09934 33.2562 9.13168 33.2597 9.16226C33.2637 9.20154 33.2805 9.22637 33.3037 9.25473C33.3171 9.2697 33.3124 9.30035 33.3193 9.34535ZM28.3365 4.32112C28.7322 4.32112 29.106 4.32112 29.4797 4.32112C29.6165 4.32112 29.7532 4.31997 29.8899 4.3217C29.9531 4.32227 30.0173 4.33094 30.0585 4.26683C30.1222 4.26683 30.186 4.26683 30.2503 4.26683C30.314 4.26683 30.3778 4.26625 30.4415 4.26625C30.4907 4.18886 30.5695 4.22004 30.6379 4.21081C30.6611 4.20734 30.6808 4.17268 30.7028 4.17211C30.7949 4.1698 30.8228 4.06468 30.8992 4.05139C31.0006 4.03407 30.9937 3.93646 31.0458 3.88563C31.091 3.84116 31.1275 3.79553 31.1408 3.73315C31.2231 3.69445 31.1478 3.598 31.215 3.54314C31.2648 3.50329 31.23 3.42416 31.2341 3.36293C31.2393 3.28497 31.2167 3.20121 31.2897 3.14C31.288 3.08628 31.2862 3.03256 31.2845 2.97828C31.2156 2.93669 31.2376 2.86854 31.2347 2.80789C31.2313 2.72992 31.2532 2.64559 31.1797 2.58495C31.2196 2.50351 31.1171 2.46193 31.1246 2.38916C31.0672 2.35392 31.0823 2.27769 31.0336 2.23552C30.9786 2.18816 30.9299 2.13329 30.8784 2.08189C30.8146 2.10672 30.7938 2.02529 30.7369 2.02587C30.6848 2.02644 30.6599 1.95193 30.5979 1.96638C30.5568 1.89765 30.4873 1.9271 30.4276 1.91613C30.3789 1.90689 30.3343 1.87165 30.2856 1.86588C30.2138 1.85664 30.1402 1.86357 30.0672 1.86357C30.0035 1.86357 29.9345 1.84798 29.8771 1.86704C29.7903 1.89591 29.7538 1.80119 29.6796 1.80755C29.6165 1.81332 29.5521 1.8087 29.4884 1.8087C29.4154 1.8087 29.3406 1.81794 29.27 1.80581C29.1981 1.79368 29.1587 1.85837 29.1008 1.86126C28.9826 1.86761 28.8638 1.86299 28.745 1.86299C28.6175 1.86299 28.4895 1.86299 28.362 1.86357C28.3551 1.86357 28.3487 1.87454 28.3371 1.88436C28.3365 2.68718 28.3365 3.49404 28.3365 4.32112Z" fill="white"/>
<path d="M6.71797 0.388734C6.76143 0.432629 6.81705 0.469016 6.80083 0.545832C6.78866 0.603012 6.87152 0.622072 6.85703 0.687336C6.84603 0.739317 6.85471 0.79592 6.85471 0.850789C6.85471 1.91583 6.85587 2.98086 6.85298 4.04532C6.85298 4.12964 6.89295 4.2284 6.79967 4.29598C6.79967 4.3959 6.79967 4.49639 6.79967 4.59632C6.79967 4.68757 6.79967 4.77825 6.79967 4.8695C6.79967 4.96076 6.79967 5.05144 6.79967 5.1427C6.79967 5.23395 6.79967 5.32463 6.79967 5.41588C6.79967 5.51581 6.79967 5.6163 6.79967 5.71622C6.79967 5.80748 6.79967 5.89815 6.79967 5.98941C6.79967 6.08066 6.79967 6.17134 6.79967 6.2626C6.79967 6.35385 6.79967 6.44453 6.79967 6.53579C6.79967 6.6357 6.79967 6.73621 6.79967 6.83612C6.79967 6.92738 6.78982 7.01979 6.80257 7.10873C6.81532 7.19595 6.72725 7.24562 6.74232 7.33283C6.75448 7.4033 6.75448 7.47954 6.74173 7.55058C6.73188 7.60718 6.66641 7.65281 6.69075 7.71922C6.71739 7.79315 6.6189 7.82261 6.6357 7.88787C6.65192 7.95083 6.59514 7.98086 6.57892 8.0288C6.5598 8.08425 6.53489 8.13854 6.50649 8.18994C6.46478 8.26387 6.4445 8.35166 6.3883 8.41289C6.33963 8.46602 6.31645 8.53302 6.27242 8.58385C6.18377 8.68723 6.07948 8.77733 5.98503 8.87609C5.94158 8.92172 5.86278 8.90786 5.83265 8.97197C5.80658 9.02742 5.73763 9.00893 5.69939 9.04821C5.66347 9.0846 5.63798 9.14407 5.56903 9.12791C5.51746 9.21567 5.39173 9.14927 5.34074 9.23707C5.25731 9.25733 5.18315 9.30409 5.08928 9.29599C5.04583 9.29256 5.01049 9.35949 4.94791 9.34742C4.89461 9.33756 4.83899 9.33985 4.80422 9.39595C4.80132 9.40053 4.788 9.39991 4.77931 9.40053C4.70862 9.40572 4.62287 9.38784 4.57014 9.42131C4.50757 9.46059 4.45079 9.45081 4.39111 9.45425C4.3181 9.4583 4.2451 9.45539 4.1721 9.45539C4.12633 9.45539 4.07534 9.44271 4.03652 9.45883C3.99828 9.47441 3.97395 9.51255 3.92064 9.51202C3.64658 9.50797 3.37253 9.50735 3.09905 9.51202C3.02431 9.51316 2.98781 9.42474 2.90148 9.45196C2.84354 9.47045 2.77459 9.45539 2.71085 9.45539C2.63785 9.45539 2.56427 9.44905 2.49184 9.45715C2.42347 9.46464 2.39798 9.3786 2.32208 9.39762C2.26183 9.41268 2.19519 9.40053 2.13088 9.40053C2.05092 9.31792 1.94721 9.35544 1.85276 9.3439C1.82205 9.33985 1.79077 9.29018 1.76643 9.29484C1.67952 9.31158 1.62738 9.21109 1.5422 9.23646C1.47673 9.19718 1.40663 9.166 1.33942 9.1308C1.26525 9.0921 1.18588 9.06092 1.11229 9.01875C1.09781 9.01067 1.07521 9.01471 1.06363 9.00489C1.00974 8.95637 0.966288 8.87898 0.904292 8.86166C0.834183 8.84144 0.801737 8.7935 0.756543 8.75423C0.701501 8.70571 0.648196 8.65431 0.601844 8.59886C0.563604 8.55323 0.546222 8.48623 0.501029 8.45216C0.445407 8.40942 0.46163 8.33261 0.406587 8.29852C0.349226 8.26271 0.352124 8.18647 0.308089 8.14894C0.250729 8.09984 0.313304 8.02303 0.252467 7.97855C0.210171 7.94736 0.228132 7.87574 0.174828 7.84687C0.170192 7.84456 0.17193 7.8307 0.170772 7.82203C0.160922 7.76254 0.192789 7.69959 0.137747 7.64356C0.0890769 7.59447 0.117467 7.52286 0.118047 7.4622C0.118626 7.38135 0.0334545 7.32994 0.0577892 7.23812C0.0757506 7.16996 0.0612656 7.09314 0.0612656 7.02037C0.0612656 6.93835 0.0612656 6.85634 0.0612656 6.7749C0.0612656 6.70212 0.0612656 6.62935 0.0612656 6.55658C0.0612656 6.47457 0.0612656 6.39255 0.0612656 6.31111C0.0612656 6.23834 0.0612656 6.16557 0.0612656 6.09279C0.0612656 6.01078 0.067639 5.92818 0.0595274 5.84733C0.04736 5.72661 0.104141 5.59724 0.00911966 5.48519C-0.00884169 5.46382 0.00680211 5.41473 0.00680211 5.37834C0.00680211 4.44095 0.00622276 3.50356 0.00796096 2.56616C0.00796096 2.50667 -0.012318 2.4443 0.0485188 2.39C0.0722741 2.36864 0.0612656 2.30568 0.0612656 2.26121C0.061845 1.68769 0.061845 1.11416 0.061845 0.541212C0.061845 0.49674 0.061845 0.452844 0.061845 0.417035C0.0769093 0.400863 0.0838622 0.389889 0.0902354 0.389889C0.674849 0.388734 1.25888 0.388734 1.84176 0.388734C1.89275 0.433784 1.86783 0.492119 1.86783 0.542944C1.86957 2.52689 1.86841 4.51141 1.87072 6.49536C1.87072 6.58027 1.83423 6.67614 1.91881 6.74892C1.92809 6.757 1.92346 6.78299 1.92346 6.80089C1.92403 6.87366 1.92346 6.94644 1.92346 7.01921C2.00747 7.07235 1.94952 7.19364 2.03296 7.24677C1.98834 7.37557 2.15289 7.41542 2.15174 7.52516C2.2485 7.62162 2.34526 7.71807 2.44202 7.81452C2.50517 7.79315 2.5295 7.86304 2.58223 7.87401C2.63843 7.88556 2.69579 7.91502 2.73983 7.95199C2.79023 7.99472 2.84585 7.96354 2.89279 7.98144C2.98375 8.01667 3.0724 8.04324 3.17206 8.03573C3.27172 8.02823 3.37253 8.034 3.47334 8.034C3.57416 8.034 3.67439 8.02996 3.77463 8.03573C3.83431 8.0392 3.85285 7.96527 3.91658 7.9774C3.96931 7.98722 4.02551 7.97971 4.08056 7.97855C4.08751 7.97855 4.09794 7.97047 4.10142 7.96411C4.14139 7.88268 4.24452 7.96411 4.29087 7.88845C4.31232 7.85264 4.37547 7.8769 4.40328 7.83012C4.45021 7.75099 4.56146 7.75676 4.6136 7.67648C4.65126 7.61931 4.70514 7.57772 4.73412 7.50726C4.75787 7.44834 4.8077 7.39117 4.84884 7.33803C4.9004 7.27161 4.84884 7.17111 4.93575 7.12664C4.94965 7.03019 4.9033 6.92622 4.96124 6.83728C5.01686 6.75238 4.98905 6.66227 4.98905 6.57622C4.99079 4.57379 4.99079 2.57136 4.99079 0.568935C4.99079 0.515222 4.99079 0.462085 4.99079 0.416457C5.00527 0.402018 5.01049 0.393355 5.0186 0.389889C5.02613 0.386424 5.03656 0.389312 5.04583 0.389312C5.60379 0.388734 6.16059 0.388734 6.71797 0.388734Z" fill="white"/>
<path d="M35.8924 0.393555C37.8351 0.393555 39.7592 0.393555 41.6788 0.393555C41.6887 0.405684 41.6991 0.412037 41.6991 0.418968C41.6997 0.891996 41.6997 1.36503 41.6997 1.83574C41.691 1.84441 41.6852 1.85249 41.6776 1.85711C41.6707 1.86116 41.6614 1.86289 41.6528 1.86289C40.3473 1.86289 39.0414 1.86289 37.736 1.86346C37.7285 1.86346 37.7215 1.87155 37.714 1.87617C37.7093 1.8831 37.7007 1.89061 37.7007 1.89755C37.7001 2.57041 37.7001 3.24328 37.7001 3.91095C37.7117 3.92249 37.7169 3.93116 37.725 3.93463C37.7325 3.93809 37.7424 3.93809 37.7511 3.93809C38.947 3.93809 40.1434 3.93809 41.3393 3.93867C41.3463 3.93867 41.3532 3.94849 41.3654 3.9583C41.3654 4.43365 41.3654 4.9136 41.3654 5.39067C41.3567 5.39934 41.3508 5.40858 41.3433 5.41146C41.3358 5.41493 41.3253 5.41205 41.3162 5.41205C40.1203 5.41205 38.9238 5.41205 37.7279 5.41205C37.6827 5.44554 37.7007 5.49464 37.7007 5.53679C37.6995 6.24663 37.7001 6.95646 37.7001 7.66628C37.7001 7.69344 37.6995 7.72116 37.7001 7.7483C37.7024 7.80318 37.7644 7.86844 37.8183 7.86902C37.8913 7.87017 37.9643 7.86959 38.0373 7.86959C39.2975 7.86959 40.5571 7.86959 41.8173 7.86959C41.8619 7.86959 41.9071 7.86959 41.9459 7.86959C41.9581 7.88173 41.9668 7.88692 41.9703 7.89501C41.9738 7.90252 41.9732 7.91234 41.9732 7.921C41.9732 8.38536 41.9732 8.84915 41.9725 9.31347C41.9725 9.32043 41.9621 9.32677 41.9517 9.33892C39.9406 9.33892 37.9255 9.33892 35.9161 9.33892C35.9045 9.32853 35.8952 9.32334 35.8924 9.31585C35.8889 9.30828 35.8917 9.29788 35.8917 9.28864C35.8924 6.33211 35.8924 3.37438 35.8924 0.393555Z" fill="white"/>
<path d="M46.0836 5.43853C46.0836 6.71091 46.0836 7.9908 46.0836 9.26206C46.0686 9.27765 46.0628 9.28857 46.0553 9.28972C46.0373 9.29262 46.0187 9.29095 46.0008 9.29095C45.4353 9.29095 44.8692 9.29095 44.3038 9.29095C44.258 9.25801 44.2759 9.20887 44.2759 9.16677C44.2753 6.28294 44.2753 3.39972 44.2753 0.515922C44.2753 0.48069 44.2753 0.444881 44.2753 0.416002C44.2881 0.403296 44.2939 0.394632 44.3014 0.391167C44.3089 0.387702 44.3188 0.388857 44.328 0.388857C46.1804 0.388857 48.0327 0.388857 49.8851 0.389434C49.892 0.389434 49.899 0.398675 49.9123 0.408494C49.9123 0.86535 49.9123 1.32683 49.9123 1.78772C49.9053 1.79465 49.9002 1.80332 49.892 1.80679C49.8845 1.81025 49.8747 1.8091 49.8654 1.8091C48.6243 1.8091 47.3833 1.8091 46.1421 1.8091C46.1329 1.8091 46.123 1.80679 46.115 1.80968C46.1068 1.81198 46.101 1.8195 46.0883 1.82931C46.0883 2.52297 46.0883 3.22067 46.0883 3.91722C46.0964 3.92531 46.1016 3.93397 46.1091 3.93743C46.1166 3.9409 46.1271 3.93917 46.1358 3.93917C47.2308 3.93917 48.3259 3.93917 49.421 3.93917C49.4303 3.93917 49.4401 3.93685 49.4482 3.93974C49.4558 3.94263 49.4622 3.95014 49.4742 3.95996C49.4742 4.4353 49.4742 4.91468 49.4742 5.3906C49.465 5.40042 49.4592 5.41139 49.4516 5.41254C49.4337 5.41543 49.4152 5.4137 49.3972 5.4137C48.348 5.4137 47.2987 5.4137 46.2488 5.4137C46.2395 5.4137 46.2308 5.4137 46.2215 5.4137C46.2123 5.4137 46.203 5.4137 46.1943 5.4137C46.185 5.4137 46.1757 5.4137 46.1671 5.4137C46.1578 5.4137 46.1491 5.4137 46.1398 5.4137C46.1306 5.4137 46.1208 5.41139 46.1126 5.41428C46.1045 5.41659 46.0993 5.42467 46.0836 5.43853Z" fill="white"/>
<path d="M22.5252 1.91767C22.5252 4.39891 22.5252 6.86166 22.5252 9.3238C22.2981 9.35154 20.9573 9.35445 20.6642 9.32785C20.6642 6.8657 20.6642 4.40295 20.6642 1.94771C20.6502 1.93385 20.6445 1.92519 20.6369 1.92114C20.6294 1.91767 20.6201 1.91767 20.6114 1.91767C19.8907 1.91767 19.1699 1.91767 18.4491 1.9171C18.4422 1.9171 18.4353 1.90786 18.4219 1.89862C18.4219 1.40537 18.4219 0.907513 18.4219 0.409649C18.4283 0.403296 18.4335 0.394632 18.4416 0.391167C18.4491 0.387702 18.459 0.388857 18.4677 0.388857C20.557 0.388857 22.6463 0.388857 24.7362 0.389434C24.7431 0.389434 24.7507 0.398098 24.7646 0.407339C24.7646 0.882677 24.7646 1.36205 24.7646 1.84144C24.7397 1.86685 24.7148 1.89284 24.6899 1.91826C23.9761 1.91767 23.264 1.91767 22.5252 1.91767Z" fill="white"/>
</g>
<defs>
<clipPath id="clip0_2336_332">
<rect width="49.9122" height="14.0909" fill="white" transform="translate(0 0.333008)"/>
</clipPath>
</defs>
</svg>
